<mxfile>
    <diagram id="eGLdNgsrQztY6TDVJP86" name="Page-1">
        <mxGraphModel dx="792" dy="517" grid="1" gridSize="10" guides="1" tooltips="1" connect="1" arrows="1" fold="1" page="1" pageScale="1" pageWidth="827" pageHeight="1169" math="0" shadow="0">
            <root>
                <mxCell id="0"/>
                <mxCell id="1" parent="0"/>
                <mxCell id="2" value="Client" style="rounded=0;whiteSpace=wrap;html=1;" parent="1" vertex="1">
                    <mxGeometry x="360" y="400" width="120" height="40" as="geometry"/>
                </mxCell>
                <mxCell id="3" value="AcerComputer" style="rounded=0;whiteSpace=wrap;html=1;" parent="1" vertex="1">
                    <mxGeometry x="360" y="500" width="120" height="50" as="geometry"/>
                </mxCell>
                <mxCell id="4" value="" style="endArrow=classic;html=1;exitX=0.5;exitY=1;exitDx=0;exitDy=0;entryX=0.5;entryY=0;entryDx=0;entryDy=0;" parent="1" source="2" target="3" edge="1">
                    <mxGeometry width="50" height="50" relative="1" as="geometry">
                        <mxPoint x="400" y="490" as="sourcePoint"/>
                        <mxPoint x="450" y="440" as="targetPoint"/>
                    </mxGeometry>
                </mxCell>
                <mxCell id="5" value="-cpu&lt;br&gt;-gpu&lt;br&gt;-ram&lt;br&gt;-discSytem" style="rounded=0;whiteSpace=wrap;html=1;" parent="1" vertex="1">
                    <mxGeometry x="360" y="550" width="120" height="60" as="geometry"/>
                </mxCell>
                <mxCell id="6" value="+produce(): AcerComputer" style="rounded=0;whiteSpace=wrap;html=1;" parent="1" vertex="1">
                    <mxGeometry x="360" y="610" width="120" height="40" as="geometry"/>
                </mxCell>
            </root>
        </mxGraphModel>
    </diagram>
</mxfile>